<svg width="121" height="62" viewBox="0 0 121 62" fill="none" xmlns="http://www.w3.org/2000/svg">
<path fill-rule="evenodd" clip-rule="evenodd" d="M60.5 28C66.8513 28 72 22.8513 72 16.5C72 10.1487 66.8513 5 60.5 5C54.1487 5 49 10.1487 49 16.5C49 22.8513 54.1487 28 60.5 28ZM66.6963 31.7971C72.7385 29.3472 77 23.4212 77 16.5C77 7.3873 69.6127 0 60.5 0C51.3873 0 44 7.3873 44 16.5C44 23.4212 48.2615 29.3472 54.3037 31.7971C49.3264 33.0948 44.7251 35.942 41.0546 40.0797C40.6767 40.5057 40.3109 40.9428 39.9575 41.3904C38.9386 38.9977 37.556 36.7929 35.8492 34.883C32.8519 31.5288 29.0418 29.2933 24.9369 28.4166C30.1921 26.8128 34 22.084 34 16.5C34 9.59644 28.1797 4 21 4C13.8203 4 8 9.59644 8 16.5C8 22.084 11.8079 26.8128 17.0631 28.4166C12.9582 29.2933 9.14811 31.5288 6.15076 34.883C3.27656 38.0994 1.32155 42.1521 0.474939 46.53C-0.0493573 49.2412 2.23858 51.5 5 51.5H21H34.6255C34.0552 53.2856 33.6298 55.1321 33.3575 57.0168C32.9627 59.7498 35.2386 62 38 62L60.5 62H83C85.7614 62 88.0374 59.7498 87.6425 57.0168C87.3702 55.1321 86.9448 53.2856 86.3745 51.5H100H116C118.761 51.5 121.049 49.2412 120.525 46.53C119.678 42.1521 117.723 38.0994 114.849 34.883C111.852 31.5288 108.042 29.2933 103.937 28.4166C109.192 26.8128 113 22.084 113 16.5C113 9.59644 107.18 4 100 4C92.8203 4 87 9.59644 87 16.5C87 22.084 90.8079 26.8128 96.0631 28.4166C91.9583 29.2933 88.1481 31.5288 85.1508 34.883C83.444 36.7929 82.0614 38.9977 81.0425 41.3904C80.6891 40.9428 80.3234 40.5057 79.9454 40.0797C76.2749 35.942 71.6736 33.0948 66.6963 31.7971ZM21 24C25.6049 24 29 20.4591 29 16.5C29 12.5409 25.6049 9 21 9C16.3951 9 13 12.5409 13 16.5C13 20.4591 16.3951 24 21 24ZM108 16.5C108 20.4591 104.605 24 100 24C95.3951 24 92 20.4591 92 16.5C92 12.5409 95.3951 9 100 9C104.605 9 108 12.5409 108 16.5ZM110.375 38.881C112.023 40.7252 113.296 42.9881 114.086 45.5H100H85.914C86.7038 42.9881 87.9767 40.7252 89.6247 38.881C92.5034 35.6596 96.2535 34 100 34C103.747 34 107.497 35.6596 110.375 38.881ZM31.3753 38.881C33.0234 40.7252 34.2962 42.9881 35.086 45.5H21H6.91404C7.70379 42.9881 8.97665 40.7252 10.6247 38.881C13.5034 35.6596 17.2535 34 21 34C24.7465 34 28.4966 35.6596 31.3753 38.881ZM75.457 44.0614C78.342 47.3136 80.3976 51.4478 81.3692 56H60.5L39.6308 56C40.6025 51.4478 42.658 47.3136 45.543 44.0614C49.6459 39.4363 55.0456 37 60.5 37C65.9544 37 71.3541 39.4363 75.457 44.0614Z" fill="#83929E"/>
</svg>
