<svg width="68" height="64" viewBox="0 0 68 64" fill="none" xmlns="http://www.w3.org/2000/svg">
<path d="M33.0489 0.927051C33.3483 0.00573993 34.6517 0.00574017 34.9511 0.927051L42.0825 22.8754C42.2164 23.2874 42.6003 23.5664 43.0336 23.5664H66.1114C67.0801 23.5664 67.4829 24.806 66.6992 25.3754L48.0288 38.9402C47.6783 39.1948 47.5317 39.6462 47.6656 40.0582L54.797 62.0066C55.0964 62.9279 54.0419 63.694 53.2582 63.1246L34.5878 49.5598C34.2373 49.3051 33.7627 49.3051 33.4122 49.5598L14.7418 63.1246C13.9581 63.694 12.9037 62.9279 13.203 62.0066L20.3344 40.0582C20.4683 39.6462 20.3217 39.1949 19.9712 38.9402L1.30081 25.3754C0.517093 24.806 0.91987 23.5664 1.88859 23.5664H24.9664C25.3997 23.5664 25.7836 23.2874 25.9175 22.8754L33.0489 0.927051Z" fill="#83929E"/>
</svg>
