<svg width="76" height="73" viewBox="0 0 76 73" fill="none" xmlns="http://www.w3.org/2000/svg">
<path d="M8.491 13.2082H56.6066" stroke="#83929E" stroke-width="4" stroke-linecap="round"/>
<path d="M8.491 25.473H56.6066" stroke="#83929E" stroke-width="4" stroke-linecap="round"/>
<path d="M8.491 37.7377H56.6066" stroke="#83929E" stroke-width="4" stroke-linecap="round"/>
<path d="M8.49103 50.0242L32.0771 50.0061" stroke="#83929E" stroke-width="4" stroke-linecap="round"/>
<mask id="path-5-inside-1_10_79" fill="white">
<path fill-rule="evenodd" clip-rule="evenodd" d="M5 4H61.041C61.5933 4 62.041 4.44772 62.041 5V48.1156H66.041V5C66.041 2.23858 63.8024 0 61.041 0H5C2.23858 0 0 2.23858 0 5.00001V67.6451C0 70.4065 2.23858 72.6451 5 72.6451H41.5115V68.6451H5C4.44772 68.6451 4 68.1974 4 67.6451V5.00001C4 4.44772 4.44772 4 5 4Z"/>
</mask>
<path fill-rule="evenodd" clip-rule="evenodd" d="M5 4H61.041C61.5933 4 62.041 4.44772 62.041 5V48.1156H66.041V5C66.041 2.23858 63.8024 0 61.041 0H5C2.23858 0 0 2.23858 0 5.00001V67.6451C0 70.4065 2.23858 72.6451 5 72.6451H41.5115V68.6451H5C4.44772 68.6451 4 68.1974 4 67.6451V5.00001C4 4.44772 4.44772 4 5 4Z" fill="#83929E"/>
<path d="M62.041 48.1156H61.041V49.1156H62.041V48.1156ZM66.041 48.1156V49.1156H67.041V48.1156H66.041ZM41.5115 72.6451V73.6451H42.5115V72.6451H41.5115ZM41.5115 68.6451H42.5115V67.6451H41.5115V68.6451ZM61.041 3H5V5H61.041V3ZM63.041 5C63.041 3.89543 62.1456 3 61.041 3V5H63.041ZM63.041 48.1156V5H61.041V48.1156H63.041ZM62.041 49.1156H66.041V47.1156H62.041V49.1156ZM67.041 48.1156V5H65.041V48.1156H67.041ZM67.041 5C67.041 1.68629 64.3547 -1 61.041 -1V1C63.2502 1 65.041 2.79086 65.041 5H67.041ZM61.041 -1H5V1H61.041V-1ZM5 -1C1.68629 -1 -1 1.6863 -1 5.00001H1C1 2.79087 2.79086 1 5 1V-1ZM-1 5.00001V67.6451H1V5.00001H-1ZM-1 67.6451C-1 70.9588 1.68629 73.6451 5 73.6451V71.6451C2.79086 71.6451 1 69.8543 1 67.6451H-1ZM5 73.6451H41.5115V71.6451H5V73.6451ZM42.5115 72.6451V68.6451H40.5115V72.6451H42.5115ZM5 69.6451H41.5115V67.6451H5V69.6451ZM3 67.6451C3 68.7497 3.89543 69.6451 5 69.6451V67.6451H5H3ZM3 5.00001V67.6451H5V5.00001H3ZM5 3C3.89544 3 3 3.89543 3 5.00001H5V5V3Z" fill="#83929E" mask="url(#path-5-inside-1_10_79)"/>
<mask id="path-7-inside-2_10_79" fill="white">
<path fill-rule="evenodd" clip-rule="evenodd" d="M73.3229 67.6928C74.8014 65.0384 73.8482 61.688 71.1938 60.2095L46.0945 46.2293L46.0945 46.2294L37.4935 46.7731C36.767 46.8191 36.3315 47.601 36.6748 48.2429L40.7404 55.8418L65.8396 69.822C68.4941 71.3005 71.8444 70.3473 73.3229 67.6928Z"/>
</mask>
<path d="M46.0945 46.2293L47.5543 43.6085L44.5809 41.9523L43.3111 45.1101L46.0945 46.2293ZM46.0945 46.2294L46.2838 49.2234L48.172 49.104L48.8779 47.3486L46.0945 46.2294ZM37.4935 46.7731L37.3042 43.7791L37.3042 43.7791L37.4935 46.7731ZM36.6748 48.2429L34.0296 49.6581L34.0296 49.6581L36.6748 48.2429ZM40.7404 55.8418L38.0951 57.2571L38.5108 58.034L39.2805 58.4627L40.7404 55.8418ZM69.7339 62.8304C70.9409 63.5027 71.3743 65.0261 70.7021 66.233L75.9438 69.1527C78.2285 65.0508 76.7554 59.8734 72.6536 57.5887L69.7339 62.8304ZM44.6347 48.8502L69.7339 62.8304L72.6536 57.5887L47.5543 43.6085L44.6347 48.8502ZM48.8779 47.3486L48.8779 47.3486L43.3111 45.1101L43.3111 45.1101L48.8779 47.3486ZM37.6828 49.7672L46.2838 49.2234L45.9052 43.2353L37.3042 43.7791L37.6828 49.7672ZM39.3201 46.8277C40.0068 48.1114 39.1358 49.6753 37.6828 49.7672L37.3042 43.7791C34.3983 43.9629 32.6561 47.0907 34.0296 49.6581L39.3201 46.8277ZM43.3856 54.4266L39.3201 46.8277L34.0296 49.6581L38.0951 57.2571L43.3856 54.4266ZM67.2995 67.2012L42.2002 53.221L39.2805 58.4627L64.3798 72.4429L67.2995 67.2012ZM70.7021 66.233C70.0298 67.44 68.5064 67.8734 67.2995 67.2012L64.3798 72.4429C68.4817 74.7276 73.6591 73.2545 75.9438 69.1527L70.7021 66.233Z" fill="#83929E" mask="url(#path-7-inside-2_10_79)"/>
<path d="M67.3947 59.493L63.2304 66.9693" stroke="#83929E" stroke-width="3"/>
</svg>
